<svg xmlns="http://www.w3.org/2000/svg" xmlns:xlink="http://www.w3.org/1999/xlink" style="margin:auto;background:transparent;display:block;z-index:1;position:relative" width="1920" height="937" preserveAspectRatio="xMidYMid" viewBox="0 0 1920 937">
<g transform=""><linearGradient id="lg-0.3011223891514798" x1="0" x2="1" y1="0" y2="0">
  <stop stop-color="#ff00ff" offset="0"></stop>
  <stop stop-color="#00ffff" offset="1"></stop>
</linearGradient><path d="M 1527.86 469 C 1527.86 634.081 1250.88 829.624 1093.79 880.504 C 936.714 931.384 624.569 916.115 527.808 782.474 C 431.047 648.833 427.696 285.944 524.457 152.303 C 621.217 18.6619 940.923 -6.8935 1098 43.9869 C 1255.09 94.8672 1527.86 303.919 1527.86 469" fill="url(#lg-0.3011223891514798)" opacity="0.4">
  <animate attributeName="d" dur="10s" repeatCount="indefinite" keyTimes="0;0.3333333333333333;0.6666666666666666;1" calcmod="spline" keySplines="0.3 0.1 0.7 0.9;0.3 0.1 0.7 0.9;0.3 0.1 0.7 0.9" begin="-4s" values="M 1479 469 C 1479 631 1261 871 1107 921 C 953 971 603 928 508 797 C 413 666 488 326 583 195 C 678 64 933 27 1087 77 C 1241 127 1479 307 1479 469;M 1590 469 C 1590 638 1238 777 1077 829 C 916 881 652 901 553 764 C 454 627 351 235 450 98 C 549 -39 951 -50 1112 2 C 1273 54 1590 300 1590 469;M 1585 469 C 1585 650 1277 858 1105 914 C 933 970 547 992 441 845 C 335 698 377 268 483 122 C 589 -24 935 -39 1107 17 C 1279 73 1585 288 1585 469;M 1479 469 C 1479 631 1261 871 1107 921 C 953 971 603 928 508 797 C 413 666 488 326 583 195 C 678 64 933 27 1087 77 C 1241 127 1479 307 1479 469"></animate>
</path><path d="M 1562.13 469 C 1562.13 639.316 1258.63 836.495 1096.87 889.414 C 935.115 942.333 627.885 920.312 527.607 782.235 C 427.329 644.158 418.744 286.133 519.022 148.056 C 619.3 9.97911 930.996 6.58612 1092.75 59.5049 C 1254.51 112.424 1562.13 298.684 1562.13 469" fill="url(#lg-0.3011223891514798)" opacity="0.4">
  <animate attributeName="d" dur="10s" repeatCount="indefinite" keyTimes="0;0.3333333333333333;0.6666666666666666;1" calcmod="spline" keySplines="0.3 0.1 0.7 0.9;0.3 0.1 0.7 0.9;0.3 0.1 0.7 0.9" begin="-4s" values="M 1644 469 C 1644 649 1289 899 1118 955 C 947 1011 616 941 510 795 C 404 649 358 254 464 108 C 570 -38 942 -59 1113 -3 C 1284 53 1644 289 1644 469;M 1458 469 C 1458 627 1220 757 1070 806 C 920 855 643 894 550 766 C 457 638 496 327 589 199 C 682 71 917 90 1067 139 C 1217 188 1458 311 1458 469;M 1607 469 C 1607 654 1278 849 1102 906 C 926 963 563 986 454 836 C 345 686 425 309 534 159 C 643 9 958 -124 1134 -67 C 1310 -10 1607 284 1607 469;M 1644 469 C 1644 649 1289 899 1118 955 C 947 1011 616 941 510 795 C 404 649 358 254 464 108 C 570 -38 942 -59 1113 -3 C 1284 53 1644 289 1644 469"></animate>
</path><path d="M 1581.13 469 C 1581.13 646.799 1280.04 876.372 1110.68 931.492 C 941.325 986.611 607.786 944.449 503.107 800.21 C 398.427 655.97 371.115 261.555 475.795 117.316 C 580.474 -26.9232 939.555 -45.5423 1108.91 9.57735 C 1278.27 64.697 1581.13 291.201 1581.13 469" fill="url(#lg-0.3011223891514798)" opacity="0.4">
  <animate attributeName="d" dur="10s" repeatCount="indefinite" keyTimes="0;0.3333333333333333;0.6666666666666666;1" calcmod="spline" keySplines="0.3 0.1 0.7 0.9;0.3 0.1 0.7 0.9;0.3 0.1 0.7 0.9" begin="-4s" values="M 1549 469 C 1549 649 1273 846 1101 902 C 929 958 643 922 537 776 C 431 630 383 273 489 127 C 595 -19 951 -90 1123 -34 C 1295 22 1549 289 1549 469;M 1622 469 C 1622 644 1289 915 1123 969 C 957 1023 563 973 460 831 C 357 689 356 247 459 105 C 562 -37 925 11 1091 65 C 1257 119 1622 294 1622 469;M 1570 469 C 1570 653 1277 849 1102 906 C 927 963 516 1018 408 869 C 300 720 387 278 495 130 C 603 -18 925 -18 1100 39 C 1275 96 1570 285 1570 469;M 1549 469 C 1549 649 1273 846 1101 902 C 929 958 643 922 537 776 C 431 630 383 273 489 127 C 595 -19 951 -90 1123 -34 C 1295 22 1549 289 1549 469"></animate>
</path><path d="M 1613.16 469 C 1613.16 645.521 1268.92 849.885 1101.4 904.205 C 933.88 958.526 613.555 938.325 509.795 795.684 C 406.034 653.043 380.107 265.312 483.867 122.671 C 587.628 -19.9703 950.397 -71.6367 1117.92 -17.3161 C 1285.44 37.0044 1613.16 292.479 1613.16 469" fill="url(#lg-0.3011223891514798)" opacity="0.4">
  <animate attributeName="d" dur="10s" repeatCount="indefinite" keyTimes="0;0.3333333333333333;0.6666666666666666;1" calcmod="spline" keySplines="0.3 0.1 0.7 0.9;0.3 0.1 0.7 0.9;0.3 0.1 0.7 0.9" begin="-4s" values="M 1618 469 C 1618 642 1261 838 1097 891 C 933 944 625 926 523 786 C 421 646 414 286 516 146 C 618 6 957 -80 1121 -27 C 1285 26 1618 296 1618 469;M 1607 469 C 1607 650 1279 865 1107 921 C 935 977 599 954 493 808 C 387 662 337 239 443 93 C 549 -53 942 -61 1114 -5 C 1286 51 1607 288 1607 469;M 1568 469 C 1568 639 1278 896 1116 949 C 954 1002 646 907 546 769 C 446 631 380 258 480 120 C 580 -18 915 56 1077 109 C 1239 162 1568 299 1568 469;M 1618 469 C 1618 642 1261 838 1097 891 C 933 944 625 926 523 786 C 421 646 414 286 516 146 C 618 6 957 -80 1121 -27 C 1285 26 1618 296 1618 469"></animate>
</path><path d="M 1489.07 469 C 1489.07 632.718 1257.92 857.923 1102.76 908.162 C 947.603 958.402 618.453 918.628 522.535 786.589 C 426.616 654.551 430.962 285.919 526.88 153.88 C 622.799 21.8419 946.517 -18.3842 1101.68 31.8551 C 1256.83 82.0944 1489.07 305.282 1489.07 469" fill="url(#lg-0.3011223891514798)" opacity="0.4">
  <animate attributeName="d" dur="10s" repeatCount="indefinite" keyTimes="0;0.3333333333333333;0.6666666666666666;1" calcmod="spline" keySplines="0.3 0.1 0.7 0.9;0.3 0.1 0.7 0.9;0.3 0.1 0.7 0.9" begin="-4s" values="M 1508 469 C 1508 638 1261 850 1101 902 C 941 954 585 949 486 813 C 387 677 427 289 526 153 C 625 17 954 -58 1114 -6 C 1274 46 1508 300 1508 469;M 1465 469 C 1465 626 1254 868 1105 916 C 956 964 661 880 569 753 C 477 626 436 282 528 155 C 620 28 937 32 1086 80 C 1235 128 1465 312 1465 469;M 1591 469 C 1591 650 1267 827 1095 883 C 923 939 646 919 540 773 C 434 627 373 265 479 119 C 585 -27 925 -8 1097 48 C 1269 104 1591 288 1591 469;M 1508 469 C 1508 638 1261 850 1101 902 C 941 954 585 949 486 813 C 387 677 427 289 526 153 C 625 17 954 -58 1114 -6 C 1274 46 1508 300 1508 469"></animate>
</path></g>
</svg>