<svg xmlns="http://www.w3.org/2000/svg" xmlns:xlink="http://www.w3.org/1999/xlink" style="margin:auto;background:transparent;display:block;z-index:1;position:relative" width="1084" height="322" preserveAspectRatio="xMidYMid" viewBox="0 0 1084 322">
<defs>
  <pattern id="pid-0.7051300597411019" x="0" y="0" width="204.8" height="204.8" patternUnits="userSpaceOnUse">
    <g transform="scale(0.8)"><g transform="translate(-118.831 118.831)">
  <line x1="96.43369627534832" x2="77.33823936734939" y1="92.67839803614135" y2="111.77385494414028" stroke-width="5" stroke="#01cbe1" stroke-linecap="round"></line><line x1="96.43369627534832" x2="77.33823936734939" y1="-419.32160196385865" y2="-400.2261450558597" stroke-width="5" stroke="#01cbe1" stroke-linecap="round"></line><line x1="352.4336962753483" x2="333.3382393673494" y1="-419.32160196385865" y2="-400.2261450558597" stroke-width="5" stroke="#01cbe1" stroke-linecap="round"></line><line x1="608.4336962753483" x2="589.3382393673494" y1="-419.32160196385865" y2="-400.2261450558597" stroke-width="5" stroke="#01cbe1" stroke-linecap="round"></line><line x1="96.43369627534832" x2="77.33823936734939" y1="-163.32160196385865" y2="-144.22614505585972" stroke-width="5" stroke="#01cbe1" stroke-linecap="round"></line><line x1="352.4336962753483" x2="333.3382393673494" y1="-163.32160196385865" y2="-144.22614505585972" stroke-width="5" stroke="#01cbe1" stroke-linecap="round"></line><line x1="608.4336962753483" x2="589.3382393673494" y1="-163.32160196385865" y2="-144.22614505585972" stroke-width="5" stroke="#01cbe1" stroke-linecap="round"></line><line x1="96.43369627534832" x2="77.33823936734939" y1="92.67839803614135" y2="111.77385494414028" stroke-width="5" stroke="#01cbe1" stroke-linecap="round"></line><line x1="352.4336962753483" x2="333.3382393673494" y1="92.67839803614135" y2="111.77385494414028" stroke-width="5" stroke="#01cbe1" stroke-linecap="round"></line><line x1="608.4336962753483" x2="589.3382393673494" y1="92.67839803614135" y2="111.77385494414028" stroke-width="5" stroke="#01cbe1" stroke-linecap="round"></line><line x1="45.91619428883809" x2="19.374616932434996" y1="90.35120900413095" y2="116.89278636053406" stroke-width="5" stroke="#01cbe1" stroke-linecap="round"></line><line x1="45.91619428883809" x2="19.374616932434996" y1="-421.64879099586904" y2="-395.10721363946595" stroke-width="5" stroke="#01cbe1" stroke-linecap="round"></line><line x1="301.9161942888381" x2="275.374616932435" y1="-421.64879099586904" y2="-395.10721363946595" stroke-width="5" stroke="#01cbe1" stroke-linecap="round"></line><line x1="557.9161942888381" x2="531.374616932435" y1="-421.64879099586904" y2="-395.10721363946595" stroke-width="5" stroke="#01cbe1" stroke-linecap="round"></line><line x1="45.91619428883809" x2="19.374616932434996" y1="-165.64879099586904" y2="-139.10721363946595" stroke-width="5" stroke="#01cbe1" stroke-linecap="round"></line><line x1="301.9161942888381" x2="275.374616932435" y1="-165.64879099586904" y2="-139.10721363946595" stroke-width="5" stroke="#01cbe1" stroke-linecap="round"></line><line x1="557.9161942888381" x2="531.374616932435" y1="-165.64879099586904" y2="-139.10721363946595" stroke-width="5" stroke="#01cbe1" stroke-linecap="round"></line><line x1="45.91619428883809" x2="19.374616932434996" y1="90.35120900413095" y2="116.89278636053406" stroke-width="5" stroke="#01cbe1" stroke-linecap="round"></line><line x1="301.9161942888381" x2="275.374616932435" y1="90.35120900413095" y2="116.89278636053406" stroke-width="5" stroke="#01cbe1" stroke-linecap="round"></line><line x1="557.9161942888381" x2="531.374616932435" y1="90.35120900413095" y2="116.89278636053406" stroke-width="5" stroke="#01cbe1" stroke-linecap="round"></line>
  <animateTransform attributeName="transform" type="translate" values="0 0;-256 256" keyTimes="0;1" repeatCount="indefinite" dur="20s"></animateTransform>
</g><g transform="translate(-237.661 237.661)">
  <line x1="55.47015631236234" x2="47.9262988758988" y1="244.1399596830214" y2="251.68381711948496" stroke-width="5" stroke="#38e0f5" stroke-linecap="round"></line><line x1="55.47015631236234" x2="47.9262988758988" y1="-267.8600403169786" y2="-260.31618288051504" stroke-width="5" stroke="#38e0f5" stroke-linecap="round"></line><line x1="311.47015631236235" x2="303.9262988758988" y1="-267.8600403169786" y2="-260.31618288051504" stroke-width="5" stroke="#38e0f5" stroke-linecap="round"></line><line x1="567.4701563123623" x2="559.9262988758989" y1="-267.8600403169786" y2="-260.31618288051504" stroke-width="5" stroke="#38e0f5" stroke-linecap="round"></line><line x1="55.47015631236234" x2="47.9262988758988" y1="-11.860040316978598" y2="-4.3161828805150435" stroke-width="5" stroke="#38e0f5" stroke-linecap="round"></line><line x1="311.47015631236235" x2="303.9262988758988" y1="-11.860040316978598" y2="-4.3161828805150435" stroke-width="5" stroke="#38e0f5" stroke-linecap="round"></line><line x1="567.4701563123623" x2="559.9262988758989" y1="-11.860040316978598" y2="-4.3161828805150435" stroke-width="5" stroke="#38e0f5" stroke-linecap="round"></line><line x1="55.47015631236234" x2="47.9262988758988" y1="244.1399596830214" y2="251.68381711948496" stroke-width="5" stroke="#38e0f5" stroke-linecap="round"></line><line x1="311.47015631236235" x2="303.9262988758988" y1="244.1399596830214" y2="251.68381711948496" stroke-width="5" stroke="#38e0f5" stroke-linecap="round"></line><line x1="567.4701563123623" x2="559.9262988758989" y1="244.1399596830214" y2="251.68381711948496" stroke-width="5" stroke="#38e0f5" stroke-linecap="round"></line><line x1="104.3570189731943" x2="92.10299799664924" y1="239.79830318421173" y2="252.0523241607568" stroke-width="5" stroke="#38e0f5" stroke-linecap="round"></line><line x1="104.3570189731943" x2="92.10299799664924" y1="-272.2016968157883" y2="-259.9476758392432" stroke-width="5" stroke="#38e0f5" stroke-linecap="round"></line><line x1="360.3570189731943" x2="348.10299799664926" y1="-272.2016968157883" y2="-259.9476758392432" stroke-width="5" stroke="#38e0f5" stroke-linecap="round"></line><line x1="616.3570189731943" x2="604.1029979966493" y1="-272.2016968157883" y2="-259.9476758392432" stroke-width="5" stroke="#38e0f5" stroke-linecap="round"></line><line x1="104.3570189731943" x2="92.10299799664924" y1="-16.201696815788267" y2="-3.947675839243203" stroke-width="5" stroke="#38e0f5" stroke-linecap="round"></line><line x1="360.3570189731943" x2="348.10299799664926" y1="-16.201696815788267" y2="-3.947675839243203" stroke-width="5" stroke="#38e0f5" stroke-linecap="round"></line><line x1="616.3570189731943" x2="604.1029979966493" y1="-16.201696815788267" y2="-3.947675839243203" stroke-width="5" stroke="#38e0f5" stroke-linecap="round"></line><line x1="104.3570189731943" x2="92.10299799664924" y1="239.79830318421173" y2="252.0523241607568" stroke-width="5" stroke="#38e0f5" stroke-linecap="round"></line><line x1="360.3570189731943" x2="348.10299799664926" y1="239.79830318421173" y2="252.0523241607568" stroke-width="5" stroke="#38e0f5" stroke-linecap="round"></line><line x1="616.3570189731943" x2="604.1029979966493" y1="239.79830318421173" y2="252.0523241607568" stroke-width="5" stroke="#38e0f5" stroke-linecap="round"></line>
  <animateTransform attributeName="transform" type="translate" values="0 0;-256 256" keyTimes="0;1" repeatCount="indefinite" dur="10s"></animateTransform>
</g><g transform="translate(-100.492 100.492)">
  <line x1="168.3214287878816" x2="153.42608193112187" y1="38.30366493404592" y2="53.19901179080562" stroke-width="5" stroke="#a9f0f9" stroke-linecap="round"></line><line x1="168.3214287878816" x2="153.42608193112187" y1="-473.6963350659541" y2="-458.8009882091944" stroke-width="5" stroke="#a9f0f9" stroke-linecap="round"></line><line x1="424.3214287878816" x2="409.42608193112187" y1="-473.6963350659541" y2="-458.8009882091944" stroke-width="5" stroke="#a9f0f9" stroke-linecap="round"></line><line x1="680.3214287878816" x2="665.4260819311219" y1="-473.6963350659541" y2="-458.8009882091944" stroke-width="5" stroke="#a9f0f9" stroke-linecap="round"></line><line x1="168.3214287878816" x2="153.42608193112187" y1="-217.6963350659541" y2="-202.80098820919437" stroke-width="5" stroke="#a9f0f9" stroke-linecap="round"></line><line x1="424.3214287878816" x2="409.42608193112187" y1="-217.6963350659541" y2="-202.80098820919437" stroke-width="5" stroke="#a9f0f9" stroke-linecap="round"></line><line x1="680.3214287878816" x2="665.4260819311219" y1="-217.6963350659541" y2="-202.80098820919437" stroke-width="5" stroke="#a9f0f9" stroke-linecap="round"></line><line x1="168.3214287878816" x2="153.42608193112187" y1="38.30366493404592" y2="53.19901179080562" stroke-width="5" stroke="#a9f0f9" stroke-linecap="round"></line><line x1="424.3214287878816" x2="409.42608193112187" y1="38.30366493404592" y2="53.19901179080562" stroke-width="5" stroke="#a9f0f9" stroke-linecap="round"></line><line x1="680.3214287878816" x2="665.4260819311219" y1="38.30366493404592" y2="53.19901179080562" stroke-width="5" stroke="#a9f0f9" stroke-linecap="round"></line><line x1="214.05997119903358" x2="191.64684482235216" y1="172.6683403171945" y2="195.0814666938759" stroke-width="5" stroke="#38e0f5" stroke-linecap="round"></line><line x1="214.05997119903358" x2="191.64684482235216" y1="-339.3316596828055" y2="-316.9185333061241" stroke-width="5" stroke="#38e0f5" stroke-linecap="round"></line><line x1="470.0599711990336" x2="447.64684482235214" y1="-339.3316596828055" y2="-316.9185333061241" stroke-width="5" stroke="#38e0f5" stroke-linecap="round"></line><line x1="726.0599711990336" x2="703.6468448223521" y1="-339.3316596828055" y2="-316.9185333061241" stroke-width="5" stroke="#38e0f5" stroke-linecap="round"></line><line x1="214.05997119903358" x2="191.64684482235216" y1="-83.33165968280551" y2="-60.91853330612409" stroke-width="5" stroke="#38e0f5" stroke-linecap="round"></line><line x1="470.0599711990336" x2="447.64684482235214" y1="-83.33165968280551" y2="-60.91853330612409" stroke-width="5" stroke="#38e0f5" stroke-linecap="round"></line><line x1="726.0599711990336" x2="703.6468448223521" y1="-83.33165968280551" y2="-60.91853330612409" stroke-width="5" stroke="#38e0f5" stroke-linecap="round"></line><line x1="214.05997119903358" x2="191.64684482235216" y1="172.6683403171945" y2="195.0814666938759" stroke-width="5" stroke="#38e0f5" stroke-linecap="round"></line><line x1="470.0599711990336" x2="447.64684482235214" y1="172.6683403171945" y2="195.0814666938759" stroke-width="5" stroke="#38e0f5" stroke-linecap="round"></line><line x1="726.0599711990336" x2="703.6468448223521" y1="172.6683403171945" y2="195.0814666938759" stroke-width="5" stroke="#38e0f5" stroke-linecap="round"></line>
  <animateTransform attributeName="transform" type="translate" values="0 0;-256 256" keyTimes="0;1" repeatCount="indefinite" dur="6.666666666666666s"></animateTransform>
</g></g>
  </pattern>
</defs>
<rect x="0" y="0" width="1084" height="322" fill="url(#pid-0.7051300597411019)"></rect>
</svg>